<?xml version="1.0" encoding="UTF-8" standalone="no"?>
<!DOCTYPE svg PUBLIC "-//W3C//DTD SVG 1.1//EN" "http://www.w3.org/Graphics/SVG/1.1/DTD/svg11.dtd">
<svg viewBox="0 0 800 800" version="1.1" xmlns="http://www.w3.org/2000/svg" xmlns:xlink="http://www.w3.org/1999/xlink" xml:space="preserve" style="fill-rule:evenodd;clip-rule:evenodd;stroke-linejoin:round;stroke-miterlimit:2;">
    <g id="Files_Folder10">
        <g>
            <path d="M669,208.75L519,33.75C514.25,28.25 507.25,25 500,25L150,25C136.25,25 125,36.25 125,50L125,750C125,763.75 136.25,775 150,775L650,775C663.75,775 675,763.75 675,750L675,225C675,219 673,213.25 669,208.75Z" style="fill:rgb(255,193,10);fill-rule:nonzero;"/>
            <g>
                <path d="M675,225L675,250L500,250C486.25,250 475,238.75 475,225L475,25L500,25C507.25,25 514.25,28.25 519,33.75L669,208.75C673,213.25 675,219 675,225Z" style="fill:rgb(254,152,3);fill-rule:nonzero;"/>
            </g>
        </g>
    </g>
    <g transform="matrix(0.406539,0,0,0.40678,237.326,237.288)">
        <g id="koper">
            <path d="M327.5,212.5C323.333,213.333 320.833,216.667 320.833,220.833L320.833,518.333C315.833,514.167 310.833,511.667 304.167,509.167C280.833,500.833 248.333,504.167 219.167,517.5C170,540.833 143.333,583.333 158.333,615.833C163.333,627.5 173.333,635.833 187.5,640.833C196.667,644.167 205.833,645.833 216.667,645.833C234.167,645.833 254.167,641.667 272.5,632.5C315,612.5 340.833,577.5 337.5,547.5L337.5,227.5L629.167,164.167L629.167,476.667C624.167,472.5 619.167,470 612.5,467.5C589.167,459.167 556.667,461.667 527.5,475.833C478.333,499.167 451.667,541.667 466.667,574.167C471.667,585.833 481.667,594.167 495.833,599.167C505,602.5 514.167,604.167 525,604.167C542.5,604.167 562.5,600 580.833,590.833C623.333,570.833 649.167,535.833 645.833,505.833L645.833,154.167" style="fill:rgb(254,152,3);fill-rule:nonzero;"/>
        </g>
    </g>
</svg>
