<?xml version="1.0" encoding="UTF-8" standalone="no"?>
<!DOCTYPE svg PUBLIC "-//W3C//DTD SVG 1.1//EN" "http://www.w3.org/Graphics/SVG/1.1/DTD/svg11.dtd">
<svg width="100%" height="100%" viewBox="0 0 800 800" version="1.1" xmlns="http://www.w3.org/2000/svg" xmlns:xlink="http://www.w3.org/1999/xlink" xml:space="preserve" style="fill-rule:evenodd;clip-rule:evenodd;stroke-linejoin:round;stroke-miterlimit:2;">
    <g id="Files_Folder10">
        <g>
            <path d="M669,208.75L519,33.75C514.25,28.25 507.25,25 500,25L150,25C136.25,25 125,36.25 125,50L125,750C125,763.75 136.25,775 150,775L650,775C663.75,775 675,763.75 675,750L675,225C675,219 673,213.25 669,208.75Z" style="fill:rgb(255,193,10);fill-rule:nonzero;"/>
            <g>
                <path d="M675,225L675,250L500,250C486.25,250 475,238.75 475,225L475,25L500,25C507.25,25 514.25,28.25 519,33.75L669,208.75C673,213.25 675,219 675,225Z" style="fill:rgb(254,152,3);fill-rule:nonzero;"/>
            </g>
        </g>
    </g>
    <g transform="matrix(10.7811,0,0,10.7811,-1930.87,-3468.52)">
        <text x="203.364px" y="363.048px" style="font-family:'ArialMT', 'Arial', sans-serif;font-size:12px;fill:rgb(254,152,3);">docx</text>
    </g>
</svg>
