<?xml version="1.0" encoding="UTF-8" standalone="no"?>
<!DOCTYPE svg PUBLIC "-//W3C//DTD SVG 1.1//EN" "http://www.w3.org/Graphics/SVG/1.1/DTD/svg11.dtd">
<svg viewBox="0 0 800 800" version="1.1" xmlns="http://www.w3.org/2000/svg" xmlns:xlink="http://www.w3.org/1999/xlink" xml:space="preserve" style="fill-rule:evenodd;clip-rule:evenodd;stroke-linejoin:round;stroke-miterlimit:2;">
    <g id="Files_Folder10">
        <g>
            <path d="M669,208.75L519,33.75C514.25,28.25 507.25,25 500,25L150,25C136.25,25 125,36.25 125,50L125,750C125,763.75 136.25,775 150,775L650,775C663.75,775 675,763.75 675,750L675,225C675,219 673,213.25 669,208.75Z" style="fill:rgb(255,193,10);fill-rule:nonzero;"/>
            <g>
                <path d="M675,225L675,250L500,250C486.25,250 475,238.75 475,225L475,25L500,25C507.25,25 514.25,28.25 519,33.75L669,208.75C673,213.25 675,219 675,225Z" style="fill:rgb(254,152,3);fill-rule:nonzero;"/>
            </g>
        </g>
    </g>
    <g transform="matrix(0.379198,0,0,0.379198,248.32,248.321)">
        <path d="M701.667,168.333C686.026,160.001 666.984,161.03 652.333,171L541.667,245.667L541.667,218.667C541.667,172.951 504.049,135.333 458.333,135.333L156.333,135.333C110.618,135.333 73,172.951 73,218.667L73,581.333C73,627.049 110.618,664.667 156.333,664.667L458.333,664.667C504.049,664.667 541.667,627.049 541.667,581.333L541.667,554.333L652.333,629C660.38,634.198 669.754,636.975 679.333,637C679.512,637.002 679.691,637.003 679.87,637.003C705.726,637.003 727.003,615.726 727.003,589.87C727.003,589.691 727.002,589.512 727,589.333L727,210.667C727.03,192.983 717.265,176.665 701.667,168.333ZM508.333,581.333C508.333,608.763 485.763,631.333 458.333,631.333L156.333,631.333C128.904,631.333 106.333,608.763 106.333,581.333L106.333,218.667C106.333,191.237 128.904,168.667 156.333,168.667L458.333,168.667C485.763,168.667 508.333,191.237 508.333,218.667L508.333,581.333ZM693.667,589.333C693.776,594.674 690.782,599.62 686,602C681.291,604.659 675.454,604.4 671,601.333L541.667,514L541.667,286L671,198.667C675.454,195.6 681.291,195.341 686,198C690.782,200.38 693.776,205.326 693.667,210.667L693.667,589.333Z" style="fill:rgb(254,152,3);fill-rule:nonzero;"/>
    </g>
</svg>
